# xmcd
#
# Track frame offsets:
#	150
#	12857
#	24255
#	39340
#	55605
#	78710
#	92787
#	105010
#	115990
#	150725
#
# Disc length: 2167 seconds
#
# Revision: 3
# Processed by: cddbd v1.5.2PL0 Copyright (c) Steve Scherf et al.
# Submitted via: audiograbber 1.83.01
#
DISCID=6508750a
DTITLE=Blues 'N' Trouble - No Minor Keys
DYEAR=1986
DGENRE=Blues
TTITLE0=Fine Fine Fine
TTITLE1=All My Love In Vain
TTITLE2=Clock On The Wall
TTITLE3=Honey Pot
TTITLE4=Tight 'N' Juicy
TTITLE5=Free To Ride
TTITLE6=You Can Run
TTITLE7=Madison Blues
TTITLE8=Double Trouble
TTITLE9=Beatiful City
EXTD=
EXTT0=
EXTT1=
EXTT2=
EXTT3=
EXTT4=
EXTT5=
EXTT6=
EXTT7=
EXTT8=
EXTT9=
PLAYORDER=
